<svg width="290" height="290" viewBox="0 0 290 290" fill="none" xmlns="http://www.w3.org/2000/svg">
<path d="M289.724 144.862C289.724 120.461 283.56 96.4563 271.805 75.0741C260.05 53.6919 243.085 35.6253 222.483 22.5509L175.249 96.9798C183.314 102.098 189.956 109.171 194.557 117.541C199.159 125.912 201.572 135.31 201.572 144.862H289.724Z" fill="#133F7D"/>
<path d="M214.533 17.8544C193.14 6.11903 169.129 -0.0223592 144.729 6.11528e-05C120.328 0.0224815 96.329 6.20798 74.9575 17.9826L117.496 95.1914C125.862 90.5819 135.258 88.1604 144.81 88.1516C154.362 88.1428 163.762 90.5471 172.137 95.1412L214.533 17.8544Z" fill="#11B2B8"/>
<path d="M0.00289917 144.862C0.00289917 120.461 6.16636 96.4563 17.9213 75.0741C29.6763 53.6919 46.6419 35.6253 67.2439 22.5509L114.478 96.9798C106.413 102.098 99.771 109.171 95.1692 117.541C90.5673 125.912 88.1545 135.31 88.1545 144.862H0.00289917Z" fill="#75E1E4"/>
<path d="M193.152 146.1C193.152 132.965 187.935 120.368 178.647 111.08C169.359 101.792 156.762 96.5742 143.627 96.5742C130.492 96.5742 117.895 101.792 108.607 111.08C99.3194 120.368 94.1016 132.965 94.1016 146.1L95.6737 146.1C95.6737 133.382 100.726 121.185 109.719 112.192C118.712 103.199 130.909 98.1463 143.627 98.1463C156.345 98.1463 168.542 103.199 177.535 112.192C186.528 121.185 191.58 133.382 191.58 146.1H193.152Z" fill="#133F7D"/>
<path d="M170.689 104.622C163.217 99.7468 154.567 96.9808 145.654 96.6157C136.74 96.2506 127.893 98.3 120.048 102.547C112.203 106.795 105.651 113.082 101.084 120.746C96.5164 128.409 94.1042 137.164 94.1016 146.085L95.6737 146.086C95.6762 137.448 98.0119 128.971 102.434 121.551C106.856 114.13 113.2 108.042 120.797 103.93C128.393 99.8173 136.959 97.833 145.589 98.1865C154.22 98.54 162.595 101.218 169.83 105.938L170.689 104.622Z" fill="#11B2B8"/>
<path d="M119.358 102.928C111.697 107.235 105.32 113.503 100.881 121.089C96.4425 128.674 94.1026 137.305 94.1016 146.094L95.6737 146.094C95.6747 137.584 97.9403 129.228 102.238 121.883C106.536 114.538 112.71 108.469 120.128 104.298L119.358 102.928Z" fill="#75E1E4"/>
<line y1="148.326" x2="289.724" y2="148.326" stroke="#133F7D" stroke-width="0.5"/>
<path d="M34.6641 103.568C35.0768 100.679 40.8547 97.3774 47.0454 97.3774C53.2361 97.3774 59.0141 100.679 59.4268 103.568" stroke="white" stroke-width="0.5" stroke-linecap="round"/>
<path d="M55.2608 87.0272C56.1476 87.0272 56.8898 86.6464 57.4874 85.8848C58.085 85.1232 58.3838 84.2188 58.3838 83.1716C58.3838 82.0767 58.085 81.1604 57.4874 80.4226C56.8898 79.6848 56.1476 79.3159 55.2608 79.3159C54.4125 79.3159 53.6799 79.6848 53.063 80.4226C52.4461 81.1604 52.1377 82.0767 52.1377 83.1716C52.1377 84.2188 52.4461 85.1232 53.063 85.8848C53.6799 86.6464 54.4125 87.0272 55.2608 87.0272ZM38.3731 87.0272C39.2599 87.0272 40.0021 86.6464 40.5997 85.8848C41.1973 85.1232 41.4961 84.2188 41.4961 83.1716C41.4961 82.0767 41.1973 81.1604 40.5997 80.4226C40.0021 79.6848 39.2599 79.3159 38.3731 79.3159C37.5248 79.3159 36.7923 79.6848 36.1754 80.4226C35.5585 81.1604 35.25 82.0767 35.25 83.1716C35.25 84.2188 35.5585 85.1232 36.1754 85.8848C36.7923 86.6464 37.5248 87.0272 38.3731 87.0272Z" fill="white"/>
<path d="M150.528 45.4243C151.382 45.4243 152.097 45.0307 152.673 44.2436C153.249 43.4564 153.536 42.5217 153.536 41.4394C153.536 40.3079 153.249 39.3609 152.673 38.5984C152.097 37.8359 151.382 37.4546 150.528 37.4546C149.711 37.4546 149.005 37.8359 148.411 38.5984C147.816 39.3609 147.519 40.3079 147.519 41.4394C147.519 42.5217 147.816 43.4564 148.411 44.2436C149.005 45.0307 149.711 45.4243 150.528 45.4243ZM134.259 45.4243C135.113 45.4243 135.828 45.0307 136.404 44.2436C136.979 43.4564 137.267 42.5217 137.267 41.4394C137.267 40.3079 136.979 39.3609 136.404 38.5984C135.828 37.8359 135.113 37.4546 134.259 37.4546C133.441 37.4546 132.736 37.8359 132.141 38.5984C131.547 39.3609 131.25 40.3079 131.25 41.4394C131.25 42.5217 131.547 43.4564 132.141 44.2436C132.736 45.0307 133.441 45.4243 134.259 45.4243ZM132.897 59.7402H151.945V59.7402C151.945 58.2845 150.765 57.1045 149.31 57.1045H142.421H135.532C134.077 57.1045 132.897 58.2845 132.897 59.7402V59.7402Z" fill="white"/>
<path d="M245.839 91.4334C246.726 91.4334 247.468 91.0526 248.066 90.291C248.663 89.5294 248.962 88.625 248.962 87.5778C248.962 86.483 248.663 85.5667 248.066 84.8289C247.468 84.0911 246.726 83.7222 245.839 83.7222C244.991 83.7222 244.258 84.0911 243.641 84.8289C243.024 85.5667 242.716 86.483 242.716 87.5778C242.716 88.625 243.024 89.5294 243.641 90.291C244.258 91.0526 244.991 91.4334 245.839 91.4334ZM228.951 91.4334C229.838 91.4334 230.58 91.0526 231.178 90.291C231.775 89.5294 232.074 88.625 232.074 87.5778C232.074 86.483 231.775 85.5667 231.178 84.8289C230.58 84.0911 229.838 83.7222 228.951 83.7222C228.103 83.7222 227.37 84.0911 226.753 84.8289C226.137 85.5667 225.828 86.483 225.828 87.5778C225.828 88.625 226.137 89.5294 226.753 90.291C227.37 91.0526 228.103 91.4334 228.951 91.4334Z" fill="white"/>
<path d="M225.336 99.8538C225.749 102.743 231.527 106.044 237.717 106.044C243.908 106.044 249.686 102.743 250.099 99.8538" stroke="white" stroke-width="0.5" stroke-linecap="round"/>
<path d="M146.14 35.0087L141.24 136.533C141.11 139.227 143.256 141.483 145.954 141.488C148.651 141.493 150.805 139.244 150.685 136.549L146.14 35.0087Z" fill="#767676" stroke="#767676" stroke-width="0.5" stroke-linejoin="round"/>
<path d="M158.481 146.099C158.481 144.473 158.161 142.863 157.539 141.361C156.917 139.859 156.005 138.494 154.855 137.344C153.705 136.194 152.34 135.282 150.838 134.66C149.336 134.038 147.726 133.718 146.1 133.718C144.474 133.718 142.864 134.038 141.362 134.66C139.86 135.282 138.495 136.194 137.345 137.344C136.195 138.494 135.283 139.859 134.661 141.361C134.039 142.863 133.719 144.473 133.719 146.099L146.1 146.099H158.481Z" fill="#626262"/>
</svg>
