<svg width="501" height="237" viewBox="0 0 501 237" fill="none" xmlns="http://www.w3.org/2000/svg">
<path d="M0.757812 186.223V123.528C0.757812 120.271 1.49966 117.828 2.98336 116.2C4.46706 114.571 6.38501 113.757 8.73721 113.757C11.1618 113.757 13.1159 114.571 14.5996 116.2C16.1195 117.792 16.8794 120.234 16.8794 123.528V186.223C16.8794 189.516 16.1195 191.977 14.5996 193.605C13.1159 195.234 11.1618 196.048 8.73721 196.048C6.42119 196.048 4.50324 195.234 2.98336 193.605C1.49966 191.94 0.757812 189.48 0.757812 186.223Z" fill="#133F7D"/>
<path d="M46.0469 143.217L68.432 177.088V142.903C68.432 140.682 68.9025 139.022 69.8433 137.924C70.8103 136.8 72.1041 136.238 73.7245 136.238C75.3971 136.238 76.717 136.8 77.684 137.924C78.651 139.022 79.1345 140.682 79.1345 142.903V188.105C79.1345 193.149 77.0437 195.671 72.862 195.671C71.8166 195.671 70.8757 195.514 70.0393 195.2C69.203 194.913 68.4189 194.442 67.6871 193.789C66.9554 193.136 66.2758 192.378 65.6486 191.515C65.0213 190.627 64.3941 189.725 63.7668 188.81L41.9305 155.331V189.006C41.9305 191.202 41.4209 192.861 40.4016 193.985C39.3823 195.109 38.0755 195.671 36.4813 195.671C34.8347 195.671 33.5149 195.109 32.5217 193.985C31.5286 192.835 31.032 191.175 31.032 189.006V144.667C31.032 142.785 31.2411 141.309 31.6592 140.237C32.1558 139.061 32.9791 138.107 34.1291 137.375C35.279 136.617 36.5205 136.238 37.8534 136.238C38.8988 136.238 39.7874 136.408 40.5192 136.748C41.2771 137.088 41.9305 137.545 42.4794 138.12C43.0544 138.695 43.6293 139.44 44.2043 140.355C44.8054 141.27 45.4196 142.224 46.0469 143.217Z" fill="#133F7D"/>
<path d="M160.882 169.558C160.882 172.091 160.248 174.842 158.982 177.809C157.751 180.74 155.797 183.635 153.119 186.494C150.441 189.317 147.022 191.615 142.86 193.388C138.698 195.161 133.849 196.048 128.313 196.048C124.115 196.048 120.297 195.65 116.859 194.854C113.421 194.057 110.291 192.827 107.468 191.162C104.682 189.462 102.113 187.236 99.7605 184.486C97.6616 181.989 95.8703 179.202 94.3866 176.126C92.9029 173.014 91.7811 169.703 91.0211 166.193C90.2974 162.683 89.9355 158.955 89.9355 155.011C89.9355 148.606 90.8583 142.87 92.7039 137.804C94.5856 132.737 97.2635 128.413 100.738 124.83C104.212 121.212 108.283 118.461 112.951 116.579C117.619 114.698 122.595 113.757 127.878 113.757C134.32 113.757 140.056 115.042 145.086 117.611C150.116 120.18 153.97 123.365 156.648 127.164C159.325 130.928 160.664 134.492 160.664 137.858C160.664 139.703 160.013 141.332 158.71 142.743C157.408 144.155 155.833 144.86 153.988 144.86C151.925 144.86 150.369 144.372 149.32 143.395C148.306 142.418 147.166 140.735 145.9 138.346C143.801 134.402 141.322 131.453 138.463 129.499C135.641 127.544 132.148 126.567 127.987 126.567C121.365 126.567 116.081 129.082 112.137 134.112C108.228 139.143 106.274 146.29 106.274 155.554C106.274 161.742 107.143 166.899 108.88 171.024C110.617 175.113 113.078 178.171 116.262 180.198C119.447 182.224 123.174 183.237 127.444 183.237C132.076 183.237 135.984 182.097 139.169 179.818C142.39 177.502 144.814 174.118 146.443 169.667C147.13 167.568 147.981 165.867 148.994 164.564C150.007 163.225 151.636 162.556 153.879 162.556C155.797 162.556 157.444 163.225 158.819 164.564C160.194 165.903 160.882 167.568 160.882 169.558Z" fill="#133F7D"/>
<path d="M249.717 170.933V143.295C249.717 140.943 250.239 139.179 251.285 138.003C252.356 136.827 253.755 136.238 255.48 136.238C257.283 136.238 258.707 136.827 259.753 138.003C260.824 139.179 261.36 140.943 261.36 143.295V171.561C261.36 174.775 261.713 177.467 262.419 179.637C263.15 181.78 264.431 183.452 266.26 184.655C268.09 185.831 270.651 186.419 273.944 186.419C278.492 186.419 281.707 185.217 283.588 182.812C285.47 180.381 286.411 176.709 286.411 171.796V143.295C286.411 140.917 286.934 139.153 287.979 138.003C289.025 136.827 290.423 136.238 292.174 136.238C293.925 136.238 295.336 136.827 296.408 138.003C297.506 139.153 298.054 140.917 298.054 143.295V170.933C298.054 175.429 297.61 179.179 296.721 182.185C295.859 185.19 294.212 187.83 291.782 190.104C289.691 192.038 287.26 193.449 284.49 194.338C281.72 195.226 278.479 195.671 274.768 195.671C270.351 195.671 266.548 195.2 263.359 194.259C260.171 193.292 257.57 191.816 255.558 189.829C253.546 187.817 252.069 185.256 251.128 182.146C250.187 179.009 249.717 175.272 249.717 170.933Z" fill="#133F7D"/>
<path d="M309.905 188.575V143.295C309.905 140.943 310.441 139.179 311.512 138.003C312.584 136.827 313.969 136.238 315.668 136.238C317.419 136.238 318.83 136.827 319.902 138.003C320.999 139.153 321.548 140.917 321.548 143.295V188.575C321.548 190.953 320.999 192.731 319.902 193.907C318.83 195.083 317.419 195.671 315.668 195.671C313.995 195.671 312.61 195.083 311.512 193.907C310.441 192.704 309.905 190.927 309.905 188.575Z" fill="#133F7D"/>
<path d="M370.72 146.823H358.018V188.575C358.018 190.979 357.483 192.77 356.411 193.946C355.339 195.096 353.954 195.671 352.255 195.671C350.53 195.671 349.119 195.083 348.021 193.907C346.95 192.731 346.414 190.953 346.414 188.575V146.823H333.712C331.726 146.823 330.249 146.392 329.282 145.53C328.315 144.641 327.832 143.478 327.832 142.041C327.832 140.551 328.328 139.375 329.321 138.512C330.341 137.65 331.804 137.219 333.712 137.219H370.72C372.733 137.219 374.222 137.663 375.189 138.551C376.183 139.44 376.679 140.603 376.679 142.041C376.679 143.478 376.183 144.641 375.189 145.53C374.196 146.392 372.707 146.823 370.72 146.823Z" fill="#133F7D"/>
<path d="M420.245 146.196H394.018V160.309H418.167C419.945 160.309 421.264 160.714 422.127 161.525C423.015 162.309 423.46 163.354 423.46 164.661C423.46 165.968 423.029 167.039 422.166 167.876C421.304 168.686 419.971 169.091 418.167 169.091H394.018V185.439H421.147C422.976 185.439 424.348 185.87 425.263 186.732C426.204 187.569 426.674 188.693 426.674 190.104C426.674 191.463 426.204 192.574 425.263 193.436C424.348 194.273 422.976 194.691 421.147 194.691H389.51C386.974 194.691 385.145 194.129 384.021 193.005C382.923 191.881 382.375 190.065 382.375 187.556V144.354C382.375 142.681 382.623 141.322 383.119 140.276C383.616 139.205 384.387 138.434 385.432 137.963C386.504 137.467 387.863 137.219 389.51 137.219H420.245C422.101 137.219 423.473 137.637 424.361 138.473C425.276 139.283 425.734 140.355 425.734 141.688C425.734 143.047 425.276 144.144 424.361 144.981C423.473 145.791 422.101 146.196 420.245 146.196Z" fill="#133F7D"/>
<path d="M450.364 170.11H446.287V188.575C446.287 191.006 445.751 192.796 444.68 193.946C443.608 195.096 442.21 195.671 440.485 195.671C438.629 195.671 437.192 195.07 436.173 193.867C435.153 192.665 434.644 190.901 434.644 188.575V144.354C434.644 141.845 435.206 140.028 436.329 138.904C437.453 137.78 439.27 137.219 441.779 137.219H460.714C463.327 137.219 465.562 137.336 467.418 137.571C469.273 137.78 470.946 138.225 472.436 138.904C474.239 139.662 475.833 140.747 477.219 142.158C478.604 143.569 479.649 145.216 480.355 147.098C481.087 148.953 481.453 150.927 481.453 153.018C481.453 157.304 480.237 160.728 477.807 163.289C475.402 165.85 471.743 167.667 466.83 168.738C468.894 169.836 470.868 171.456 472.749 173.599C474.631 175.742 476.304 178.029 477.767 180.46C479.257 182.864 480.407 185.047 481.217 187.007C482.054 188.941 482.472 190.274 482.472 191.006C482.472 191.764 482.224 192.521 481.727 193.279C481.256 194.011 480.603 194.586 479.767 195.004C478.93 195.449 477.963 195.671 476.866 195.671C475.559 195.671 474.461 195.357 473.573 194.73C472.684 194.129 471.913 193.358 471.26 192.417C470.632 191.476 469.77 190.091 468.672 188.261L464.007 180.499C462.334 177.65 460.832 175.481 459.499 173.991C458.192 172.502 456.859 171.482 455.5 170.933C454.141 170.385 452.429 170.11 450.364 170.11ZM457.029 145.961H446.287V161.76H456.715C459.512 161.76 461.864 161.525 463.772 161.054C465.68 160.558 467.13 159.734 468.123 158.584C469.143 157.408 469.652 155.801 469.652 153.762C469.652 152.168 469.247 150.77 468.437 149.568C467.627 148.339 466.503 147.424 465.065 146.823C463.706 146.248 461.028 145.961 457.029 145.961Z" fill="#133F7D"/>
<path d="M209.104 147.281C209.983 147.281 210.838 147.57 211.536 148.104L225.541 158.825C227.742 160.564 228.83 161.65 230.611 163.863L249.848 193.422C249.985 193.633 249.834 193.911 249.583 193.911H232.4L214.871 167.321C212.708 164.406 210.919 162.953 208.383 161.775C206.337 160.824 204.06 160.522 201.804 160.522H196.508L198.823 153.417C199.087 152.607 199.083 151.734 198.811 150.926L197.722 147.698C197.653 147.493 197.806 147.281 198.022 147.281H209.104Z" fill="#133F7D"/>
<path d="M192.553 129.711C192.553 128.607 193.448 127.711 194.553 127.711H217.396C229.308 129.06 231.521 143.557 219.072 146.913C217.974 147.209 216.824 147.281 215.687 147.281H212.55C212.399 147.281 212.333 147.472 212.453 147.564L226.11 158.12C226.374 158.324 226.738 158.372 227.047 158.243C251.832 147.974 244.171 115.173 219.036 115.173H179.723C178.848 115.173 178.14 115.881 178.14 116.756V138.285C178.14 138.534 178.285 138.76 178.512 138.862L179.065 139.112C179.444 139.284 179.75 139.585 179.924 139.963C182.29 145.08 185.004 151.313 189.996 154.262C190.318 154.48 190.491 154.664 190.598 154.93C190.714 155.216 190.69 155.535 190.638 155.839L190.117 158.858C190.039 159.313 189.81 159.728 189.467 160.037L186.717 162.515C185.647 163.585 185.205 166.48 186.082 167.185C186.236 167.309 186.452 167.267 186.626 167.171L193.949 163.099C194.373 162.863 194.691 162.473 194.838 162.01C195.971 158.453 196.723 156.284 197.908 152.867L198.006 152.584C198.218 151.973 198.153 151.297 197.826 150.739L193.647 143.592C192.931 142.367 192.553 140.973 192.553 139.554V129.711Z" fill="#12B6BC"/>
<path d="M167.53 161.935L171.992 159.14C172.323 158.933 172.697 158.799 173.086 158.778C174.731 158.689 175.076 159.104 174.45 160.451C174.282 160.812 174.005 161.109 173.678 161.335L169.008 164.564C168.506 164.91 167.866 165.109 167.311 164.856C166.784 164.616 166.557 164.231 166.525 163.605C166.49 162.911 166.942 162.303 167.53 161.935Z" fill="#12B6BC"/>
<path d="M170.161 165.344L174.139 162.581C174.621 162.247 175.173 162.014 175.756 161.947C178.381 161.647 178.733 162.407 177.549 164.675C177.275 165.201 176.857 165.638 176.367 165.972L172.237 168.783C171.863 169.037 171.422 169.194 170.971 169.163C169.599 169.067 169.14 168.466 169.205 166.97C169.234 166.309 169.617 165.722 170.161 165.344Z" fill="#12B6BC"/>
<path d="M178.64 166.55C179.144 166.767 179.339 167.117 179.241 167.741C179.151 168.319 178.743 168.786 178.271 169.131L175.291 171.309C175.014 171.511 174.698 171.658 174.358 171.702C173.163 171.856 172.764 171.497 172.814 170.451C172.845 169.831 173.224 169.29 173.733 168.933L176.537 166.96C177.155 166.525 177.946 166.25 178.64 166.55Z" fill="#12B6BC"/>
<path d="M180.356 193.919H190.337C191.561 193.919 192.553 192.927 192.553 191.703V165.376C192.553 165.255 192.422 165.179 192.316 165.239L186.717 168.433C183.471 169.157 184.053 162.151 188.882 159.016C189.07 158.894 189.189 158.688 189.189 158.464V155.733C189.189 155.508 189.094 155.294 188.926 155.144L184.998 151.625C184.831 151.476 184.692 151.298 184.587 151.1L179.105 140.761C179.032 140.624 178.933 140.502 178.805 140.414C176.789 139.022 174.999 140.79 175.34 142.365C175.348 142.406 175.362 142.445 175.378 142.483L178.98 150.921C178.99 150.944 178.997 150.969 179 150.995C179.087 151.725 178.237 151.95 177.915 151.399L174.525 143.255C174.436 143.039 174.276 142.935 174 142.874C172.326 142.502 170.427 143.601 170.98 145.771C171.039 146.003 171.087 146.245 171.188 146.463V146.463L174.556 153.745C174.762 154.25 174.138 154.678 173.782 154.291C173.765 154.273 173.752 154.251 173.741 154.228L170.742 147.831C170.584 147.496 170.243 147.269 169.876 147.322C168.597 147.508 168.265 148.338 168.359 150.237C168.383 150.712 168.526 151.172 168.752 151.591L170.718 155.163C170.79 155.296 170.844 155.382 170.948 155.539C171.455 156.306 171.475 156.326 172.346 157.444C172.463 157.562 172.626 157.666 172.793 157.662C174.749 157.619 175.569 158.075 175.744 160.255C175.757 160.409 175.875 160.535 176.028 160.555C179.192 160.97 179.917 161.955 178.646 165.171C178.582 165.334 178.659 165.518 178.817 165.593C180.194 166.242 180.44 167.033 179.686 169.084C179.665 169.141 179.627 169.192 179.579 169.228L178.267 170.209C178.187 170.269 178.14 170.363 178.14 170.462V191.703C178.14 192.927 179.132 193.919 180.356 193.919Z" fill="#133F7D"/>
<circle cx="326.969" cy="51.0934" r="12.5468" fill="#133F7D" stroke="#133F7D"/>
<path d="M348.384 104.867L327.606 129.028L306.359 104.928V81.7333C306.198 79.3172 307.229 74.0985 312.641 72.5522C318.053 71.0059 320.695 70.9415 321.339 71.1025V78.3507C319.889 78.3507 319.889 78.8339 319.889 81.25V92.8472L327.606 103.901L334.854 92.787V81.1899C334.854 78.7738 334.854 78.2906 333.404 78.2906V71.0424C334.048 70.8813 336.69 70.9457 342.102 72.492C347.514 74.0383 348.545 79.257 348.384 81.6731V104.867Z" fill="#133F7D" stroke="#133F7D" stroke-linecap="round"/>
<path d="M301.946 57.5123C303.884 60.8809 306.195 63.6177 307.964 65.2674C306.043 66.4132 304.581 67.6949 303.477 69.3017C302.261 71.0702 301.503 73.1979 301.012 75.8981C300.942 76.2829 300.873 77.3623 300.81 78.8092C300.746 80.2772 300.685 82.1708 300.638 84.2215C300.56 87.5817 300.517 91.3721 300.548 94.4106C300.059 93.6212 299.414 92.5915 298.682 91.4318C297.056 88.8556 295.002 85.633 293.287 82.9653C288.958 76.2308 285.434 69.0201 283.192 62.2993C282.643 60.6542 281.559 55.9179 281.037 50.2344C280.514 44.5481 280.561 37.9815 282.229 32.6473C284.616 25.0131 288.909 18.323 296.577 11.6129C300.383 8.28286 309.941 1.5843 325.256 1.10569C340.568 0.627204 350.604 6.84604 354.893 10.1818C364.693 17.8032 368.748 27.3713 371.15 35.5385C373.525 43.6133 372.587 56.5388 367.303 69.0276C363.413 78.2233 357.694 88.5387 354.191 93.5056V75.9875V75.9437L354.183 75.9006C353.922 74.4176 352.844 72.2637 351.226 70.2061C349.738 68.3122 347.752 66.4474 345.428 65.2236C349.609 61.1279 351.804 57.2595 352.95 53.7808C354.131 50.1967 354.188 47.0551 354.191 44.5786H354.191L354.191 44.5169V44.5154L354.191 44.1902V44.0953H354.187C353.929 28.8304 341.474 16.5353 326.148 16.5353C310.66 16.5353 298.104 29.0907 298.104 44.5786C298.104 49.286 299.811 53.8025 301.946 57.5123Z" fill="#12B6BC" stroke="#12B6BC"/>
<path d="M323.984 89.083L326.244 75.5259H328.503L330.763 89.083L327.148 94.054L323.984 89.083Z" fill="#133F7D"/>
<circle cx="327.377" cy="73.7144" r="2.25953" fill="#133F7D"/>
<path d="M25.4019 236.258V223.54H20.7578V220.542H33.9935V223.54H29.3494V236.258H25.4019Z" fill="#133F7D"/>
<path d="M38.429 236.258V220.542H49.0576V223.54H42.3554V226.295H48.5299V229.292H42.3554V233.261H49.0576V236.258H38.429Z" fill="#133F7D"/>
<path d="M61.3143 236.564C58.957 236.564 57.0853 235.854 55.6991 234.432C54.3129 233.004 53.6198 230.999 53.6198 228.416C53.6198 225.925 54.3129 223.941 55.6991 222.463C57.0923 220.979 58.9676 220.236 61.3248 220.236C61.9511 220.236 62.514 220.271 63.0136 220.342C63.5132 220.412 63.9916 220.511 64.449 220.637C64.8079 220.743 65.1984 220.887 65.6206 221.07C66.0428 221.253 66.3841 221.411 66.6444 221.545V225.292H66.2433C66.0533 225.123 65.8141 224.923 65.5256 224.69C65.2371 224.451 64.9099 224.219 64.544 223.994C64.1781 223.769 63.7735 223.579 63.3302 223.424C62.8939 223.262 62.4366 223.181 61.9581 223.181C61.3881 223.181 60.8639 223.272 60.3854 223.455C59.914 223.631 59.4637 223.941 59.0344 224.384C58.6404 224.785 58.3167 225.327 58.0634 226.01C57.8171 226.692 57.694 227.498 57.694 228.427C57.694 229.405 57.8241 230.228 58.0845 230.897C58.3448 231.558 58.6861 232.093 59.1083 232.501C59.5164 232.895 59.9703 233.18 60.4699 233.356C60.9765 233.532 61.4796 233.62 61.9792 233.62C62.4999 233.62 62.996 233.535 63.4674 233.366C63.9389 233.19 64.3364 232.997 64.6601 232.786C65.0119 232.568 65.3215 232.346 65.5889 232.121C65.8563 231.896 66.0885 231.695 66.2855 231.519H66.6444V235.213C66.3559 235.347 66.0217 235.502 65.6417 235.678C65.2617 235.847 64.8712 235.991 64.4701 236.111C63.9776 236.258 63.5167 236.371 63.0875 236.448C62.6582 236.526 62.0672 236.564 61.3143 236.564Z" fill="#133F7D"/>
<path d="M85.0544 236.258H81.107V229.292H75.7346V236.258H71.7871V220.542H75.7346V226.295H81.107V220.542H85.0544V236.258Z" fill="#133F7D"/>
<path d="M114.307 228.416C114.307 229.88 113.987 231.192 113.346 232.353C112.706 233.507 111.897 234.394 110.919 235.013C110.102 235.541 109.212 235.882 108.248 236.037C107.291 236.184 106.271 236.258 105.187 236.258H100.269V220.542H105.145C106.25 220.542 107.284 220.613 108.248 220.753C109.212 220.894 110.116 221.235 110.961 221.777C111.995 222.439 112.811 223.332 113.41 224.458C114.008 225.577 114.307 226.896 114.307 228.416ZM110.254 228.384C110.254 227.35 110.074 226.467 109.715 225.735C109.364 224.996 108.818 224.419 108.079 224.004C107.545 223.709 106.982 223.547 106.391 223.519C105.807 223.491 105.106 223.477 104.29 223.477H104.216V233.314H104.29C105.177 233.314 105.923 233.299 106.528 233.271C107.14 233.236 107.721 233.046 108.269 232.701C108.917 232.293 109.409 231.73 109.747 231.013C110.085 230.295 110.254 229.419 110.254 228.384Z" fill="#133F7D"/>
<path d="M133.994 236.258H129.181L124.801 230.495H123.386V236.258H119.46V220.542H125.782C126.655 220.542 127.415 220.599 128.062 220.711C128.709 220.817 129.308 221.042 129.856 221.387C130.419 221.746 130.866 222.203 131.197 222.759C131.528 223.308 131.693 224.008 131.693 224.859C131.693 226.062 131.422 227.04 130.88 227.793C130.338 228.539 129.614 229.134 128.706 229.577L133.994 236.258ZM127.64 225.355C127.64 224.961 127.563 224.623 127.408 224.342C127.26 224.054 127.01 223.832 126.658 223.677C126.412 223.572 126.138 223.505 125.835 223.477C125.532 223.448 125.156 223.434 124.706 223.434H123.386V227.667H124.516C125.065 227.667 125.529 227.635 125.909 227.572C126.296 227.501 126.623 227.357 126.891 227.139C127.144 226.942 127.33 226.706 127.45 226.432C127.577 226.157 127.64 225.799 127.64 225.355Z" fill="#133F7D"/>
<path d="M145.807 236.258H137.342V233.514H139.601V223.287H137.342V220.542H145.807V223.287H143.548V233.514H145.807V236.258Z" fill="#133F7D"/>
<path d="M164.365 220.542L158.961 236.258H154.845L149.441 220.542H153.536L156.956 231.192L160.375 220.542H164.365Z" fill="#133F7D"/>
<path d="M168.632 236.258V220.542H179.26V223.54H172.558V226.295H178.733V229.292H172.558V233.261H179.26V236.258H168.632Z" fill="#133F7D"/>
<path d="M198.209 236.258H194.409L188.35 225.302V236.258H184.741V220.542H189.585L194.599 229.545V220.542H198.209V236.258Z" fill="#133F7D"/>
<path d="M226.617 236.258H222.669V229.292H217.297V236.258H213.349V220.542H217.297V226.295H222.669V220.542H226.617V236.258Z" fill="#133F7D"/>
<path d="M240.52 236.258H232.055V233.514H234.313V223.287H232.055V220.542H240.52V223.287H238.261V233.514H240.52V236.258Z" fill="#133F7D"/>
<path d="M260.481 236.258H255.668L251.288 230.495H249.874V236.258H245.947V220.542H252.27C253.142 220.542 253.902 220.599 254.549 220.711C255.197 220.817 255.795 221.042 256.344 221.387C256.907 221.746 257.354 222.203 257.684 222.759C258.015 223.308 258.18 224.008 258.18 224.859C258.18 226.062 257.909 227.04 257.368 227.793C256.826 228.539 256.101 229.134 255.193 229.577L260.481 236.258ZM254.127 225.355C254.127 224.961 254.05 224.623 253.895 224.342C253.747 224.054 253.497 223.832 253.146 223.677C252.899 223.572 252.625 223.505 252.322 223.477C252.02 223.448 251.643 223.434 251.193 223.434H249.874V227.667H251.003C251.552 227.667 252.016 227.635 252.396 227.572C252.783 227.501 253.11 227.357 253.378 227.139C253.631 226.942 253.818 226.706 253.937 226.432C254.064 226.157 254.127 225.799 254.127 225.355Z" fill="#133F7D"/>
<path d="M272.295 236.258H263.83V233.514H266.088V223.287H263.83V220.542H272.295V223.287H270.036V233.514H272.295V236.258Z" fill="#133F7D"/>
<path d="M291.19 236.258H287.39L281.332 225.302V236.258H277.722V220.542H282.567L287.58 229.545V220.542H291.19V236.258Z" fill="#133F7D"/>
<path d="M310.318 235.361C309.628 235.643 308.731 235.917 307.626 236.184C306.529 236.452 305.445 236.586 304.376 236.586C301.906 236.586 299.935 235.875 298.465 234.453C297.001 233.025 296.269 231.002 296.269 228.384C296.269 225.922 297.001 223.948 298.465 222.463C299.935 220.979 301.944 220.236 304.492 220.236C305.807 220.236 306.877 220.363 307.7 220.616C308.524 220.862 309.375 221.2 310.255 221.629V225.313H309.896C309.706 225.165 309.431 224.958 309.072 224.69C308.721 224.416 308.376 224.184 308.038 223.994C307.644 223.769 307.187 223.575 306.666 223.413C306.152 223.251 305.607 223.17 305.03 223.17C304.354 223.17 303.739 223.276 303.183 223.487C302.627 223.698 302.131 224.022 301.695 224.458C301.279 224.88 300.949 225.415 300.702 226.062C300.463 226.71 300.344 227.463 300.344 228.321C300.344 230.158 300.804 231.512 301.726 232.385C302.648 233.257 303.908 233.694 305.505 233.694C305.646 233.694 305.811 233.69 306.001 233.683C306.191 233.676 306.356 233.665 306.497 233.651V230.569H303.447V227.625H310.318V235.361Z" fill="#133F7D"/>
<path d="M330.103 236.543C328.899 236.543 327.84 236.427 326.926 236.195C326.018 235.963 325.173 235.674 324.392 235.329V231.593H324.751C325.539 232.262 326.408 232.775 327.358 233.134C328.308 233.493 329.23 233.672 330.124 233.672C330.349 233.672 330.644 233.648 331.01 233.599C331.383 233.549 331.682 233.472 331.907 233.366C332.182 233.247 332.414 233.081 332.604 232.87C332.794 232.652 332.889 232.367 332.889 232.015C332.889 231.621 332.734 231.301 332.425 231.055C332.115 230.809 331.746 230.629 331.316 230.517C330.782 230.376 330.208 230.242 329.596 230.115C328.991 229.989 328.424 229.834 327.897 229.651C326.679 229.222 325.807 228.645 325.279 227.92C324.751 227.195 324.487 226.288 324.487 225.197C324.487 223.726 325.11 222.537 326.356 221.629C327.601 220.715 329.156 220.257 331.021 220.257C331.957 220.257 332.885 220.352 333.807 220.542C334.736 220.732 335.566 220.989 336.298 221.313V224.901H335.95C335.366 224.402 334.652 223.98 333.807 223.635C332.97 223.29 332.108 223.118 331.221 223.118C330.877 223.118 330.567 223.142 330.293 223.192C330.018 223.241 329.73 223.336 329.427 223.477C329.181 223.589 328.966 223.758 328.783 223.983C328.607 224.201 328.519 224.448 328.519 224.722C328.519 225.123 328.66 225.443 328.941 225.682C329.23 225.915 329.782 226.126 330.599 226.316C331.126 226.435 331.633 226.551 332.118 226.664C332.611 226.777 333.135 226.931 333.691 227.128C334.782 227.522 335.591 228.054 336.119 228.722C336.654 229.384 336.921 230.26 336.921 231.35C336.921 232.912 336.305 234.168 335.074 235.118C333.849 236.068 332.192 236.543 330.103 236.543Z" fill="#133F7D"/>
<path d="M356.07 228.406C356.07 230.946 355.391 232.944 354.033 234.401C352.675 235.857 350.813 236.586 348.449 236.586C346.078 236.586 344.217 235.85 342.866 234.38C341.515 232.902 340.839 230.911 340.839 228.406C340.839 225.879 341.515 223.885 342.866 222.421C344.217 220.95 346.078 220.215 348.449 220.215C350.813 220.215 352.675 220.947 354.033 222.41C355.391 223.867 356.07 225.865 356.07 228.406ZM351.996 228.395C351.996 227.459 351.897 226.664 351.7 226.01C351.51 225.348 351.253 224.806 350.93 224.384C350.592 223.955 350.208 223.649 349.779 223.466C349.357 223.276 348.917 223.181 348.46 223.181C347.974 223.181 347.534 223.269 347.14 223.445C346.746 223.614 346.366 223.92 346.001 224.363C345.677 224.771 345.413 225.313 345.209 225.989C345.012 226.664 344.913 227.47 344.913 228.406C344.913 229.37 345.008 230.172 345.198 230.812C345.388 231.445 345.649 231.977 345.979 232.406C346.317 232.842 346.701 233.155 347.13 233.345C347.559 233.528 348.002 233.62 348.46 233.62C348.924 233.62 349.375 233.521 349.811 233.324C350.247 233.12 350.623 232.807 350.94 232.385C351.278 231.927 351.538 231.396 351.721 230.791C351.904 230.179 351.996 229.38 351.996 228.395Z" fill="#133F7D"/>
<path d="M371.714 236.258H361.223V220.542H365.17V233.261H371.714V236.258Z" fill="#133F7D"/>
<path d="M382.757 236.586C380.646 236.586 379.021 236.075 377.881 235.055C376.748 234.035 376.182 232.543 376.182 230.58V220.542H380.129V230.348C380.129 231.438 380.333 232.251 380.741 232.786C381.156 233.321 381.828 233.588 382.757 233.588C383.665 233.588 384.33 233.331 384.752 232.817C385.181 232.304 385.396 231.481 385.396 230.348V220.542H389.343V230.569C389.343 232.504 388.788 233.993 387.676 235.034C386.571 236.068 384.932 236.586 382.757 236.586Z" fill="#133F7D"/>
<path d="M398.212 236.258V223.54H393.568V220.542H406.804V223.54H402.159V236.258H398.212Z" fill="#133F7D"/>
<path d="M419.071 236.258H410.606V233.514H412.864V223.287H410.606V220.542H419.071V223.287H416.812V233.514H419.071V236.258Z" fill="#133F7D"/>
<path d="M438.811 228.406C438.811 230.946 438.132 232.944 436.774 234.401C435.415 235.857 433.554 236.586 431.19 236.586C428.819 236.586 426.958 235.85 425.607 234.38C424.256 232.902 423.58 230.911 423.58 228.406C423.58 225.879 424.256 223.885 425.607 222.421C426.958 220.95 428.819 220.215 431.19 220.215C433.554 220.215 435.415 220.947 436.774 222.41C438.132 223.867 438.811 225.865 438.811 228.406ZM434.736 228.395C434.736 227.459 434.638 226.664 434.441 226.01C434.251 225.348 433.994 224.806 433.67 224.384C433.333 223.955 432.949 223.649 432.52 223.466C432.098 223.276 431.658 223.181 431.201 223.181C430.715 223.181 430.275 223.269 429.881 223.445C429.487 223.614 429.107 223.92 428.741 224.363C428.418 224.771 428.154 225.313 427.95 225.989C427.753 226.664 427.654 227.47 427.654 228.406C427.654 229.37 427.749 230.172 427.939 230.812C428.129 231.445 428.39 231.977 428.72 232.406C429.058 232.842 429.441 233.155 429.871 233.345C430.3 233.528 430.743 233.62 431.201 233.62C431.665 233.62 432.115 233.521 432.552 233.324C432.988 233.12 433.364 232.807 433.681 232.385C434.019 231.927 434.279 231.396 434.462 230.791C434.645 230.179 434.736 229.38 434.736 228.395Z" fill="#133F7D"/>
<path d="M457.432 236.258H453.632L447.574 225.302V236.258H443.964V220.542H448.808L453.822 229.545V220.542H457.432V236.258Z" fill="#133F7D"/>
<path d="M485.005 121.645V110.444H488.563C489.582 110.444 490.425 110.565 491.092 110.806C491.759 111.028 492.25 111.389 492.565 111.89C492.88 112.371 493.037 112.983 493.037 113.724C493.037 114.391 492.852 114.975 492.481 115.475C492.129 115.975 491.62 116.383 490.953 116.698L494.177 121.645H491.286L488.757 117.365H487.534V121.645H485.005ZM487.534 115.475H488.507C489.118 115.475 489.591 115.345 489.924 115.086C490.276 114.808 490.452 114.382 490.452 113.807C490.452 113.288 490.286 112.918 489.952 112.696C489.637 112.473 489.146 112.362 488.479 112.362H487.534V115.475ZM488.729 128.092C487.062 128.092 485.496 127.777 484.032 127.148C482.587 126.536 481.309 125.684 480.197 124.591C479.104 123.479 478.242 122.201 477.612 120.755C477.001 119.292 476.695 117.726 476.695 116.058C476.695 114.391 477.001 112.835 477.612 111.389C478.242 109.926 479.104 108.647 480.197 107.554C481.309 106.442 482.587 105.581 484.032 104.969C485.496 104.339 487.062 104.024 488.729 104.024C490.397 104.024 491.953 104.339 493.398 104.969C494.862 105.581 496.141 106.442 497.234 107.554C498.345 108.647 499.207 109.926 499.818 111.389C500.448 112.835 500.763 114.391 500.763 116.058C500.763 117.726 500.448 119.292 499.818 120.755C499.207 122.201 498.345 123.479 497.234 124.591C496.141 125.684 494.862 126.536 493.398 127.148C491.953 127.777 490.397 128.092 488.729 128.092ZM488.729 125.619C490.063 125.619 491.305 125.378 492.453 124.896C493.602 124.396 494.612 123.711 495.483 122.84C496.372 121.95 497.058 120.931 497.539 119.783C498.04 118.615 498.29 117.374 498.29 116.058C498.29 114.724 498.04 113.483 497.539 112.334C497.058 111.186 496.372 110.176 495.483 109.305C494.612 108.416 493.593 107.73 492.426 107.248C491.277 106.748 490.045 106.498 488.729 106.498C487.395 106.498 486.154 106.748 485.005 107.248C483.856 107.73 482.837 108.416 481.948 109.305C481.077 110.176 480.392 111.195 479.891 112.362C479.41 113.511 479.169 114.743 479.169 116.058C479.169 117.392 479.41 118.634 479.891 119.783C480.392 120.931 481.077 121.95 481.948 122.84C482.837 123.711 483.856 124.396 485.005 124.896C486.172 125.378 487.414 125.619 488.729 125.619Z" fill="#133F7D"/>
</svg>
