<svg width="93" height="93" viewBox="0 0 93 93" fill="none" xmlns="http://www.w3.org/2000/svg">
<g clip-path="url(#clip0_554_6089)">
<rect width="93" height="93" rx="46.5" fill="#11B2B8"/>
<path d="M21.3174 66.8276C14.5261 67.233 8.94277 70.0374 7 71.3889C7.50681 80.3847 16.5787 97.8443 48.8118 95.7157C81.045 93.5871 87.6673 78.6109 86.9493 71.3889C84.6686 68.9815 74.279 69.1082 70.7314 67.9679C67.8932 67.0556 62.9603 61.8439 60.8486 59.3521L36.0149 55.9312C33.9454 59.3944 28.1086 66.4221 21.3174 66.8276Z" fill="#363636"/>
<path d="M23.5977 66.3208V73.036L29.2993 73.6695L24.6113 78.7376L28.9192 90.3943" stroke="#868686"/>
<path d="M70.8555 67.9033V73.7965L65.1539 74.43L69.8418 79.4981L65.534 91.1547" stroke="#868686"/>
<path d="M33.9922 58.8455L36.2728 55.8047L57.3055 56.5649L60.8531 58.8455C60.7687 62.351 60.3717 70.6035 59.4594 75.5703C58.5471 80.537 56.5452 89.1275 55.6583 92.8018C49.1712 94.3223 41.4676 93.4353 38.4268 92.8018C36.5009 89.3555 34.6679 68.7283 33.9922 58.8455Z" fill="white"/>
<path d="M49.5745 67.7144H45.1399L43.3661 70.2484L45.9001 74.3029L40.832 93.0549C44.6838 94.0685 50.8838 93.4772 53.5023 93.0549L48.941 74.3029L51.6017 70.2484L49.5745 67.7144Z" fill="black"/>
<path d="M29.0469 35.0249C29.0469 33.4031 30.0605 32.2374 30.5673 31.8573L33.8616 20.4541L57.9351 22.9882L62.1162 32.2374C62.5386 32.153 63.5606 32.3641 64.2702 33.8846C65.1571 35.7851 64.2702 39.4595 63.8901 40.4731C63.51 41.4867 62.2429 45.0344 61.1026 45.1611C60.1904 45.2625 59.7934 44.6965 59.7089 44.4009C58.9487 46.8082 55.5277 56.4376 46.1517 56.4376C38.6509 56.4376 34.833 47.3995 33.8616 42.8805C33.8193 43.2183 33.6842 43.9954 33.4815 44.4009C33.2281 44.9077 32.2144 45.2878 31.2008 43.6407C30.1872 41.9935 29.0469 37.0521 29.0469 35.0249Z" fill="#FCCFC1"/>
<path d="M36.1445 55.8045V48.9626L57.8107 47.5688V57.1982C56.6957 60.1377 51.9401 64.9271 49.7017 66.9543H45.0137C43.2906 66.1434 38.3829 59.1832 36.1445 55.8045Z" fill="#FCCFC1"/>
<path d="M61.4845 41.7404C61.3832 43.7677 62.118 42.5851 62.4981 41.7404C63.2585 40.3467 63.3849 37.1791 63.2582 35.4053C63.1315 33.6315 61.6111 33.2514 61.231 36.0388C60.8509 38.8263 62.1179 35.6587 62.2446 38.5729C62.3713 41.487 61.6112 39.2064 61.4845 41.7404Z" fill="#FB9E82"/>
<path d="M32.2616 41.8684C32.3629 43.8956 31.6281 42.713 31.248 41.8684C30.4876 40.4746 30.3612 37.3071 30.4879 35.5332C30.6146 33.7594 32.135 33.3793 32.5151 36.1667C32.8952 38.9542 31.6282 35.7866 31.5015 38.7008C31.3748 41.615 32.1349 39.3343 32.2616 41.8684Z" fill="#FB9E82"/>
<path d="M36.0146 22.355C34.0888 24.2808 33.5228 31.6887 33.4806 35.1519C32.467 33.0233 31.031 32.2378 30.4397 32.1111C29.4261 29.0702 30.0596 19.9476 30.8198 18.8073C31.58 17.667 34.4942 9.1779 47.6713 10.0648C60.8483 10.9517 63.0023 19.8209 63.0023 21.2146C63.0023 22.3296 63.2556 29.2814 63.2556 32.6179C61.7352 32.7192 60.9328 34.3495 60.8483 35.1519L58.3143 25.1424C55.983 24.0274 42.4765 22.8195 36.0146 22.355Z" fill="black"/>
<path d="M46.9142 56.4376C40.9339 56.4376 37.2426 51.5384 36.1445 49.0889C37.1582 53.5235 43.8734 58.5916 47.4211 59.9853C50.2592 61.1003 54.263 60.7877 55.9101 60.4921L57.8107 56.9444V49.469C56.6703 51.7919 52.8946 56.4376 46.9142 56.4376Z" fill="#FB9E82"/>
</g>
<defs>
<clipPath id="clip0_554_6089">
<rect width="93" height="93" rx="46.5" fill="white"/>
</clipPath>
</defs>
</svg>
