<svg width="135" height="768" viewBox="0 0 135 768" fill="none" xmlns="http://www.w3.org/2000/svg">
<rect y="0.3125" width="134.428" height="766.721" fill="#133F7D"/>
<path d="M77.9766 516.377L54.9366 516.377L54.9366 513.353L72.2646 505.001L54.9366 496.697L54.9366 493.641L77.9606 493.641L77.9606 496.809L62.2006 496.809L77.9766 504.249L77.9766 505.769L62.2006 513.225L77.9766 513.225L77.9766 516.377ZM78.4566 482.998C78.4566 484.278 78.2219 485.35 77.7526 486.214C77.2726 487.078 76.6432 487.734 75.8646 488.182C75.0752 488.619 74.2112 488.838 73.2726 488.838C72.3979 488.838 71.6299 488.683 70.9686 488.374C70.3072 488.065 69.7472 487.606 69.2886 486.998C68.8192 486.39 68.4406 485.643 68.1526 484.758C67.9286 483.99 67.7312 483.121 67.5606 482.15C67.3899 481.179 67.2299 480.161 67.0806 479.094C66.9312 478.017 66.7819 476.95 66.6326 475.894L67.3046 477.11C65.9499 477.089 64.9472 477.377 64.2966 477.974C63.6352 478.561 63.3046 479.574 63.3046 481.014C63.3046 481.921 63.5179 482.753 63.9446 483.51C64.3606 484.267 65.0539 484.795 66.0246 485.094L65.0646 488.214C63.5819 487.787 62.4032 486.977 61.5286 485.782C60.6539 484.577 60.2166 482.977 60.2166 480.982C60.2166 479.435 60.4832 478.091 61.0166 476.95C61.5392 475.798 62.3712 474.955 63.5126 474.422C64.0779 474.145 64.6752 473.974 65.3046 473.91C65.9339 473.846 66.6112 473.814 67.3366 473.814L77.9766 473.814L77.9766 476.774L74.0246 476.774L74.5366 476.198C75.8592 476.913 76.8459 477.825 77.4966 478.934C78.1366 480.033 78.4566 481.387 78.4566 482.998ZM75.7206 482.406C75.7206 481.457 75.5552 480.641 75.2246 479.958C74.8832 479.275 74.4512 478.726 73.9286 478.31C73.4059 477.894 72.8619 477.622 72.2966 477.494C71.7846 477.313 71.2086 477.211 70.5686 477.19C69.9286 477.158 69.4166 477.142 69.0326 477.142L69.4326 476.054C69.5926 477.11 69.7366 478.07 69.8646 478.934C69.9926 479.798 70.1206 480.582 70.2486 481.286C70.3659 481.979 70.5099 482.598 70.6806 483.142C70.8406 483.601 71.0326 484.011 71.2566 484.374C71.4806 484.726 71.7526 485.009 72.0726 485.222C72.3926 485.425 72.7819 485.526 73.2406 485.526C73.6886 485.526 74.1046 485.414 74.4886 485.19C74.8619 484.966 75.1606 484.625 75.3846 484.166C75.6086 483.707 75.7206 483.121 75.7206 482.406ZM77.9766 456.251L69.4806 456.251C68.8086 456.251 68.1206 456.31 67.4166 456.427C66.7019 456.534 66.0406 456.747 65.4326 457.067C64.8246 457.377 64.3339 457.819 63.9606 458.395C63.5872 458.961 63.4006 459.702 63.4006 460.619C63.4006 461.217 63.5019 461.782 63.7046 462.315C63.8966 462.849 64.2112 463.318 64.6486 463.723C65.0859 464.118 65.6619 464.433 66.3766 464.667C67.0912 464.891 67.9606 465.003 68.9846 465.003L68.2006 467.083C66.6326 467.083 65.2512 466.79 64.0566 466.203C62.8512 465.617 61.9126 464.774 61.2406 463.675C60.5686 462.577 60.2326 461.249 60.2326 459.691C60.2326 458.497 60.4246 457.494 60.8086 456.683C61.1926 455.873 61.6992 455.217 62.3286 454.715C62.9472 454.203 63.6246 453.814 64.3606 453.547C65.0966 453.281 65.8166 453.099 66.5206 453.003C67.2246 452.907 67.8432 452.859 68.3766 452.859L77.9766 452.859L77.9766 456.251ZM77.9766 468.395L60.6966 468.395L60.6966 465.403L65.6886 465.403L65.6886 465.003L77.9766 465.003L77.9766 468.395ZM78.4566 440.767C78.4566 442.377 78.0566 443.769 77.2566 444.943C76.4566 446.105 75.3686 447.007 73.9926 447.647C72.6059 448.276 71.0486 448.591 69.3206 448.591C67.5819 448.591 66.0299 448.271 64.6646 447.631C63.2886 446.991 62.2059 446.084 61.4166 444.911C60.6166 443.727 60.2166 442.324 60.2166 440.703C60.2166 439.071 60.6166 437.7 61.4166 436.591C62.2059 435.471 63.2886 434.628 64.6646 434.063C66.0406 433.487 67.5926 433.199 69.3206 433.199C71.0486 433.199 72.6006 433.487 73.9766 434.063C75.3526 434.639 76.4459 435.487 77.2566 436.607C78.0566 437.727 78.4566 439.113 78.4566 440.767ZM75.4326 440.303C75.4326 439.204 75.1712 438.308 74.6486 437.615C74.1259 436.921 73.4059 436.415 72.4886 436.095C71.5712 435.775 70.5152 435.615 69.3206 435.615C68.1259 435.615 67.0699 435.78 66.1526 436.111C65.2352 436.431 64.5206 436.932 64.0086 437.615C63.4966 438.287 63.2406 439.145 63.2406 440.191C63.2406 441.3 63.5126 442.212 64.0566 442.927C64.6006 443.641 65.3312 444.175 66.2486 444.527C67.1659 444.868 68.1899 445.039 69.3206 445.039C70.4619 445.039 71.4966 444.868 72.4246 444.527C73.3419 444.175 74.0726 443.652 74.6166 442.959C75.1606 442.255 75.4326 441.369 75.4326 440.303ZM77.9766 435.615L65.5446 435.615L65.5446 435.999L54.9366 435.999L54.9366 432.639L77.9766 432.639L77.9766 435.615ZM78.4566 422.002C78.4566 423.282 78.2219 424.354 77.7526 425.218C77.2726 426.082 76.6432 426.738 75.8646 427.186C75.0752 427.623 74.2112 427.842 73.2726 427.842C72.3979 427.842 71.6299 427.687 70.9686 427.378C70.3072 427.069 69.7472 426.61 69.2886 426.002C68.8192 425.394 68.4406 424.647 68.1526 423.762C67.9286 422.994 67.7312 422.125 67.5606 421.154C67.3899 420.183 67.2299 419.165 67.0806 418.098C66.9312 417.021 66.7819 415.954 66.6326 414.898L67.3046 416.114C65.9499 416.093 64.9472 416.381 64.2966 416.978C63.6352 417.565 63.3046 418.578 63.3046 420.018C63.3046 420.925 63.5179 421.757 63.9446 422.514C64.3606 423.271 65.0539 423.799 66.0246 424.098L65.0646 427.218C63.5819 426.791 62.4032 425.981 61.5286 424.786C60.6539 423.581 60.2166 421.981 60.2166 419.986C60.2166 418.439 60.4832 417.095 61.0166 415.954C61.5392 414.802 62.3712 413.959 63.5126 413.426C64.0779 413.149 64.6752 412.978 65.3046 412.914C65.9339 412.85 66.6112 412.818 67.3366 412.818L77.9766 412.818L77.9766 415.778L74.0246 415.778L74.5366 415.202C75.8592 415.917 76.8459 416.829 77.4966 417.938C78.1366 419.037 78.4566 420.391 78.4566 422.002ZM75.7206 421.41C75.7206 420.461 75.5552 419.645 75.2246 418.962C74.8832 418.279 74.4512 417.73 73.9286 417.314C73.4059 416.898 72.8619 416.626 72.2966 416.498C71.7846 416.317 71.2086 416.215 70.5686 416.194C69.9286 416.162 69.4166 416.146 69.0326 416.146L69.4326 415.058C69.5926 416.114 69.7366 417.074 69.8646 417.938C69.9926 418.802 70.1206 419.586 70.2486 420.29C70.3659 420.983 70.5099 421.602 70.6806 422.146C70.8406 422.605 71.0326 423.015 71.2566 423.378C71.4806 423.73 71.7526 424.013 72.0726 424.226C72.3926 424.429 72.7819 424.53 73.2406 424.53C73.6886 424.53 74.1046 424.418 74.4886 424.194C74.8619 423.97 75.1606 423.629 75.3846 423.17C75.6086 422.711 75.7206 422.125 75.7206 421.41ZM77.9766 397.495C78.1899 398.583 78.2806 399.65 78.2486 400.695C78.2166 401.74 78.0139 402.674 77.6406 403.495C77.2672 404.316 76.6806 404.935 75.8806 405.351C75.1659 405.724 74.4406 405.927 73.7046 405.959C72.9579 405.98 72.1152 405.991 71.1766 405.991L55.8966 405.991L55.8966 402.631L71.0166 402.631C71.7099 402.631 72.3126 402.626 72.8246 402.615C73.3366 402.594 73.7686 402.482 74.1206 402.279C74.7819 401.895 75.1606 401.287 75.2566 400.455C75.3419 399.612 75.3046 398.626 75.1446 397.495L77.9766 397.495ZM63.3846 409.303L60.6966 409.303L60.6966 397.495L63.3846 397.495L63.3846 409.303ZM78.4566 385.849C78.4566 387.577 78.0672 389.076 77.2886 390.345C76.5099 391.615 75.4379 392.596 74.0726 393.289C72.6966 393.972 71.1126 394.313 69.3206 394.313C67.5179 394.313 65.9339 393.961 64.5686 393.257C63.1926 392.553 62.1259 391.567 61.3686 390.297C60.6006 389.028 60.2166 387.545 60.2166 385.849C60.2166 384.121 60.6059 382.623 61.3846 381.353C62.1632 380.084 63.2352 379.103 64.6006 378.409C65.9659 377.716 67.5392 377.369 69.3206 377.369C71.1232 377.369 72.7126 377.721 74.0886 378.425C75.4539 379.119 76.5259 380.1 77.3046 381.369C78.0726 382.639 78.4566 384.132 78.4566 385.849ZM75.3046 385.849C75.3046 384.196 74.7499 382.964 73.6406 382.153C72.5206 381.332 71.0806 380.921 69.3206 380.921C67.5179 380.921 66.0779 381.337 65.0006 382.169C63.9126 382.991 63.3686 384.217 63.3686 385.849C63.3686 386.969 63.6246 387.892 64.1366 388.617C64.6379 389.343 65.3366 389.881 66.2326 390.233C67.1179 390.585 68.1472 390.761 69.3206 390.761C71.1339 390.761 72.5846 390.345 73.6726 389.513C74.7606 388.681 75.3046 387.46 75.3046 385.849ZM77.9766 372.573L60.6966 372.573L60.6966 369.597L64.8886 369.597L64.3446 370.013C63.7899 369.8 63.2832 369.522 62.8246 369.181C62.3552 368.84 61.9712 368.445 61.6726 367.997C61.3526 367.56 61.1072 367.074 60.9366 366.541C60.7552 365.997 60.6486 365.442 60.6166 364.877C60.5739 364.312 60.6006 363.768 60.6966 363.245L63.8326 363.245C63.6832 363.81 63.6406 364.44 63.7046 365.133C63.7686 365.816 63.9872 366.445 64.3606 367.021C64.7126 367.565 65.1392 367.997 65.6406 368.317C66.1419 368.626 66.7019 368.85 67.3206 368.989C67.9286 369.128 68.5739 369.197 69.2566 369.197L77.9766 369.197L77.9766 372.573ZM85.6566 357.02L76.5526 353.676L79.2406 353.628L60.6966 361.164L60.6966 357.676L75.0166 352.044L75.0166 353.068L60.6966 347.692L60.6966 344.3L85.6566 353.836L85.6566 357.02ZM78.4566 324.475C78.4566 326.128 78.1739 327.622 77.6086 328.955C77.0326 330.278 76.2166 331.371 75.1606 332.235C74.0939 333.088 72.8299 333.643 71.3686 333.899L70.8406 330.411C72.2486 330.059 73.3472 329.323 74.1366 328.203C74.9152 327.083 75.3046 325.776 75.3046 324.283C75.3046 323.355 75.1606 322.502 74.8726 321.723C74.5739 320.944 74.1526 320.32 73.6086 319.851C73.0539 319.371 72.3926 319.131 71.6246 319.131C71.2086 319.131 70.8406 319.206 70.5206 319.355C70.2006 319.494 69.9232 319.691 69.6886 319.947C69.4432 320.192 69.2352 320.496 69.0646 320.859C68.8832 321.211 68.7286 321.6 68.6006 322.027L66.8566 327.931C66.6859 328.507 66.4672 329.094 66.2006 329.691C65.9232 330.288 65.5659 330.838 65.1286 331.339C64.6806 331.83 64.1312 332.23 63.4806 332.539C62.8192 332.848 62.0192 333.003 61.0806 333.003C59.6619 333.003 58.4619 332.64 57.4806 331.915C56.4886 331.179 55.7419 330.187 55.2406 328.939C54.7286 327.691 54.4726 326.294 54.4726 324.747C54.4939 323.19 54.7712 321.798 55.3046 320.571C55.8379 319.334 56.6059 318.31 57.6086 317.499C58.6006 316.678 59.8059 316.112 61.2246 315.803L61.8326 319.387C60.9686 319.547 60.2272 319.888 59.6086 320.411C58.9792 320.934 58.4992 321.574 58.1686 322.331C57.8272 323.088 57.6512 323.91 57.6406 324.795C57.6192 325.648 57.7472 326.432 58.0246 327.147C58.3019 327.851 58.6912 328.416 59.1926 328.843C59.6939 329.259 60.2699 329.467 60.9206 329.467C61.5606 329.467 62.0779 329.28 62.4726 328.907C62.8672 328.534 63.1819 328.075 63.4166 327.531C63.6406 326.976 63.8272 326.427 63.9766 325.883L65.1766 321.627C65.3259 321.094 65.5286 320.491 65.7846 319.819C66.0299 319.136 66.3766 318.48 66.8246 317.851C67.2726 317.211 67.8699 316.683 68.6166 316.267C69.3526 315.851 70.2806 315.643 71.4006 315.643C72.5632 315.643 73.5872 315.878 74.4726 316.347C75.3472 316.816 76.0832 317.462 76.6806 318.283C77.2672 319.094 77.7099 320.032 78.0086 321.099C78.3072 322.166 78.4566 323.291 78.4566 324.475ZM77.9766 310.969L54.9366 310.953L54.9366 307.561L69.0166 307.561L60.6966 300.777L60.6966 296.521L69.3366 303.689L77.9766 295.785L77.9766 300.329L69.6566 307.561L77.9766 307.561L77.9766 310.969ZM57.8646 292.572L54.6166 292.572L54.6166 289.228L57.8646 289.228L57.8646 292.572ZM77.9766 292.572L60.6966 292.572L60.6966 289.228L77.9766 289.228L77.9766 292.572ZM77.9766 282.823L54.4566 282.823L54.4566 279.479L77.9766 279.479L77.9766 282.823ZM77.9766 273.074L54.4566 273.074L54.4566 269.73L77.9766 269.73L77.9766 273.074ZM78.4406 257.038C78.4406 259.139 77.9766 260.851 77.0486 262.174C76.1206 263.496 74.8139 264.307 73.1286 264.606L72.6006 261.182C73.4966 260.968 74.2059 260.478 74.7286 259.71C75.2406 258.931 75.4966 257.966 75.4966 256.814C75.4966 255.768 75.2832 254.952 74.8566 254.366C74.4299 253.768 73.8432 253.47 73.0966 253.47C72.6592 253.47 72.3072 253.576 72.0405 253.79C71.7632 253.992 71.5019 254.424 71.2566 255.086C71.0112 255.747 70.7072 256.755 70.3446 258.11C69.9606 259.592 69.5499 260.771 69.1126 261.646C68.6646 262.51 68.1472 263.128 67.5606 263.502C66.9632 263.864 66.2432 264.046 65.4006 264.046C64.3552 264.046 63.4432 263.768 62.6646 263.214C61.8859 262.659 61.2832 261.88 60.8565 260.878C60.4299 259.864 60.2166 258.68 60.2166 257.326C60.2166 256.003 60.4245 254.824 60.8405 253.79C61.2565 252.755 61.8485 251.918 62.6165 251.278C63.3739 250.638 64.2645 250.254 65.2885 250.126L65.9126 253.55C65.0806 253.667 64.4245 254.056 63.9445 254.718C63.4645 255.379 63.2032 256.238 63.1605 257.294C63.1179 258.307 63.2885 259.128 63.6725 259.758C64.0459 260.387 64.5632 260.702 65.2245 260.702C65.6085 260.702 65.9339 260.584 66.2005 260.35C66.4672 260.104 66.7232 259.635 66.9686 258.942C67.2139 258.248 67.5072 257.224 67.8486 255.87C68.2219 254.419 68.6379 253.267 69.0966 252.414C69.5446 251.56 70.0832 250.952 70.7125 250.59C71.3312 250.216 72.0832 250.03 72.9685 250.03C74.6752 250.03 76.0139 250.654 76.9846 251.902C77.9552 253.139 78.4406 254.851 78.4406 257.038Z" fill="white"/>
</svg>
