<svg width="105" height="104" viewBox="0 0 105 104" fill="none" xmlns="http://www.w3.org/2000/svg">
<circle cx="52.0117" cy="52" r="52" fill="#CADFF5"/>
<path d="M52.0078 104C80.7266 104 104.008 80.7188 104.008 52C104.008 38.6853 99.0036 26.5395 90.7734 17.3405C89.6068 16.5604 87.2734 15.5 84.2734 16C81.2734 16.5 77.2734 20 71.7734 20C67.2734 20 63.9128 15.0002 55.7734 15C47.2734 14.9998 46.2734 20 38.7734 20C33.3883 20 29.2734 15 23.7734 15C19.3734 15 14.5325 17 12.6621 18C4.77744 27.1162 0.0078125 39.0011 0.0078125 52C0.0078125 80.7188 23.289 104 52.0078 104Z" fill="#11B2B8"/>
</svg>
