<svg width="290" height="157" viewBox="0 0 290 157" fill="none" xmlns="http://www.w3.org/2000/svg">
<path d="M144 88C132.8 88 121.667 92.3333 117.5 94.5L76 18.5C83 12.3333 106.4 0 144 0C181.6 0 206.333 12.3333 214 18.5L171 94.5C166.667 92.3333 155.2 88 144 88Z" fill="#11B2B8"/>
<path d="M195.5 116.5C191.1 108.5 181 99.8333 176.5 96.5L223 22.5C234.5 30.5 260.7 52.6 273.5 77C286.3 101.4 289.5 131.167 289.5 143H202C201.667 137.5 199.9 124.5 195.5 116.5Z" fill="#133F7D"/>
<path d="M94 116C98.4 108 108.5 99.3333 113 96L66.5 22C55 30 28.8 52.1 16 76.5C3.2 100.9 0 130.667 0 142.5H87.5C87.8333 137 89.6 124 94 116Z" fill="#75E1E4"/>
<path d="M95.5 142.5C96 126.833 106.3 95.5 143.5 95.5C180.7 95.5 192.333 126.833 193.5 142.5" stroke="#133F7D" stroke-width="2"/>
<path d="M95.5 142.5C96 126.833 106.3 95.5 143.5 95.5C153.882 95.5 162.273 97.9405 169 101.8" stroke="#11B2B8" stroke-width="2"/>
<path d="M95.5 142.5C95.8725 130.829 101.683 110.465 120 100.836" stroke="#75E1E4" stroke-width="2"/>
<line y1="146.326" x2="289.724" y2="146.326" stroke="#133F7D" stroke-width="0.5"/>
<path d="M34.6641 101.568C35.0768 98.6791 40.8547 95.3774 47.0454 95.3774C53.2361 95.3774 59.0141 98.6791 59.4268 101.568" stroke="white" stroke-width="0.5" stroke-linecap="round"/>
<path d="M55.2608 85.0272C56.1476 85.0272 56.8898 84.6464 57.4874 83.8848C58.085 83.1232 58.3838 82.2188 58.3838 81.1716C58.3838 80.0767 58.085 79.1604 57.4874 78.4226C56.8898 77.6848 56.1476 77.3159 55.2608 77.3159C54.4125 77.3159 53.6799 77.6848 53.063 78.4226C52.4461 79.1604 52.1377 80.0767 52.1377 81.1716C52.1377 82.2188 52.4461 83.1232 53.063 83.8848C53.6799 84.6464 54.4125 85.0272 55.2608 85.0272ZM38.3731 85.0272C39.2599 85.0272 40.0021 84.6464 40.5997 83.8848C41.1973 83.1232 41.4961 82.2188 41.4961 81.1716C41.4961 80.0767 41.1973 79.1604 40.5997 78.4226C40.0021 77.6848 39.2599 77.3159 38.3731 77.3159C37.5248 77.3159 36.7923 77.6848 36.1754 78.4226C35.5585 79.1604 35.25 80.0767 35.25 81.1716C35.25 82.2188 35.5585 83.1232 36.1754 83.8848C36.7923 84.6464 37.5248 85.0272 38.3731 85.0272Z" fill="white"/>
<path d="M150.528 43.4243C151.382 43.4243 152.097 43.0307 152.673 42.2436C153.249 41.4564 153.536 40.5217 153.536 39.4394C153.536 38.3079 153.249 37.3609 152.673 36.5984C152.097 35.8359 151.382 35.4546 150.528 35.4546C149.711 35.4546 149.005 35.8359 148.411 36.5984C147.816 37.3609 147.519 38.3079 147.519 39.4394C147.519 40.5217 147.816 41.4564 148.411 42.2436C149.005 43.0307 149.711 43.4243 150.528 43.4243ZM134.259 43.4243C135.113 43.4243 135.828 43.0307 136.404 42.2436C136.979 41.4564 137.267 40.5217 137.267 39.4394C137.267 38.3079 136.979 37.3609 136.404 36.5984C135.828 35.8359 135.113 35.4546 134.259 35.4546C133.441 35.4546 132.736 35.8359 132.141 36.5984C131.547 37.3609 131.25 38.3079 131.25 39.4394C131.25 40.5217 131.547 41.4564 132.141 42.2436C132.736 43.0307 133.441 43.4243 134.259 43.4243ZM132.897 57.7402H151.945V57.7402C151.945 56.2845 150.765 55.1045 149.31 55.1045H142.421H135.532C134.077 55.1045 132.897 56.2845 132.897 57.7402V57.7402Z" fill="white"/>
<path d="M245.839 89.4334C246.726 89.4334 247.468 89.0526 248.066 88.291C248.663 87.5294 248.962 86.625 248.962 85.5778C248.962 84.483 248.663 83.5667 248.066 82.8289C247.468 82.0911 246.726 81.7222 245.839 81.7222C244.991 81.7222 244.258 82.0911 243.641 82.8289C243.024 83.5667 242.716 84.483 242.716 85.5778C242.716 86.625 243.024 87.5294 243.641 88.291C244.258 89.0526 244.991 89.4334 245.839 89.4334ZM228.951 89.4334C229.838 89.4334 230.58 89.0526 231.178 88.291C231.775 87.5294 232.074 86.625 232.074 85.5778C232.074 84.483 231.775 83.5667 231.178 82.8289C230.58 82.0911 229.838 81.7222 228.951 81.7222C228.103 81.7222 227.37 82.0911 226.753 82.8289C226.137 83.5667 225.828 84.483 225.828 85.5778C225.828 86.625 226.137 87.5294 226.753 88.291C227.37 89.0526 228.103 89.4334 228.951 89.4334Z" fill="white"/>
<path d="M225.336 97.8538C225.749 100.743 231.527 104.044 237.717 104.044C243.908 104.044 249.686 100.743 250.099 97.8538" stroke="white" stroke-width="0.5" stroke-linecap="round"/>
<path d="M236.741 89.3424L145.447 134.024C143.024 135.21 142.083 138.179 143.38 140.544C144.677 142.909 147.686 143.711 149.988 142.306L236.741 89.3424Z" fill="#767676" stroke="#767676" stroke-width="0.5" stroke-linejoin="round"/>
<path d="M158.481 144.099C158.481 142.473 158.161 140.863 157.539 139.361C156.917 137.859 156.005 136.494 154.855 135.344C153.705 134.194 152.34 133.282 150.838 132.66C149.336 132.038 147.726 131.718 146.1 131.718C144.474 131.718 142.864 132.038 141.362 132.66C139.86 133.282 138.495 134.194 137.345 135.344C136.195 136.494 135.283 137.859 134.661 139.361C134.039 140.863 133.719 142.473 133.719 144.099L146.1 144.099H158.481Z" fill="#626262"/>
</svg>
