<svg width="429" height="176" viewBox="0 0 429 176" fill="none" xmlns="http://www.w3.org/2000/svg">
<g clip-path="url(#clip0_607_4535)">
<rect x="135" width="176" height="176" rx="88" fill="#11B2B8"/>
<path d="M178.697 138.027C166.983 138.727 157.351 143.564 154 145.896C154.874 161.413 170.523 191.531 226.125 187.859C281.728 184.188 293.151 158.354 291.913 145.896C287.978 141.743 270.056 141.961 263.937 139.994C259.041 138.421 250.531 129.431 246.889 125.132L204.051 119.231C200.481 125.205 190.412 137.328 178.697 138.027Z" fill="#363636"/>
<path d="M182.633 137.153V148.737L192.468 149.83L184.381 158.572L191.812 178.68" stroke="#868686" stroke-width="4"/>
<path d="M264.152 139.883V150.048L254.317 151.141L262.404 159.884L254.973 179.991" stroke="#868686" stroke-width="4"/>
<path d="M200.559 124.259L204.493 119.013L240.774 120.325L246.894 124.259C246.748 130.306 246.063 144.541 244.49 153.109C242.916 161.676 239.463 176.495 237.933 182.833C226.742 185.456 213.454 183.926 208.208 182.833C204.886 176.888 201.724 141.306 200.559 124.259Z" fill="white"/>
<path d="M227.436 139.558H219.787L216.727 143.929L221.098 150.923L212.355 183.27C219 185.018 229.695 183.999 234.212 183.27L226.343 150.923L230.933 143.929L227.436 139.558Z" fill="black"/>
<path d="M192.027 83.1683C192.027 80.3707 193.776 78.3599 194.65 77.7043L200.333 58.0337L241.859 62.4049L249.072 78.3599C249.801 78.2142 251.564 78.5785 252.788 81.2012C254.317 84.4797 252.788 90.818 252.132 92.5665C251.476 94.315 249.291 100.435 247.323 100.653C245.75 100.828 245.065 99.8519 244.919 99.3419C243.608 103.495 237.707 120.105 221.533 120.105C208.594 120.105 202.008 104.515 200.333 96.7191C200.26 97.302 200.027 98.6425 199.677 99.3419C199.24 100.216 197.491 100.872 195.743 98.0305C193.994 95.1892 192.027 86.6653 192.027 83.1683Z" fill="#FCCFC1"/>
<path d="M204.273 119.012V107.21L241.648 104.806V121.416C239.724 126.487 231.521 134.749 227.66 138.246H219.573C216.6 136.847 208.135 124.841 204.273 119.012Z" fill="#FCCFC1"/>
<path d="M247.981 94.7525C247.807 98.2495 249.074 96.2096 249.73 94.7525C251.042 92.3484 251.26 86.8843 251.041 83.8244C250.822 80.7646 248.2 80.1089 247.544 84.9172C246.888 89.7256 249.074 84.2616 249.293 89.2885C249.511 94.3154 248.2 90.3813 247.981 94.7525Z" fill="#FB9E82"/>
<path d="M197.569 94.9732C197.744 98.4702 196.477 96.4303 195.821 94.9732C194.509 92.5691 194.291 87.105 194.51 84.0451C194.728 80.9853 197.351 80.3296 198.007 85.1379C198.662 89.9463 196.477 84.4823 196.258 89.5092C196.04 94.5361 197.351 90.602 197.569 94.9732Z" fill="#FB9E82"/>
<path d="M204.055 61.3123C200.733 64.6344 199.756 77.413 199.684 83.3871C197.935 79.7152 195.458 78.3601 194.438 78.1416C192.69 72.8961 193.782 57.1596 195.094 55.1926C196.405 53.2255 201.432 38.5819 224.162 40.1118C246.893 41.6417 250.608 56.9411 250.608 59.3452C250.608 61.2686 251.045 73.2604 251.045 79.0158C248.423 79.1907 247.039 82.0028 246.893 83.3871L242.522 66.1207C238.5 64.1973 215.201 62.1137 204.055 61.3123Z" fill="black"/>
<path d="M222.851 120.105C212.535 120.105 206.168 111.654 204.273 107.429C206.022 115.078 217.606 123.821 223.725 126.225C228.621 128.148 235.528 127.609 238.369 127.099L241.648 120.98V108.084C239.68 112.091 233.167 120.105 222.851 120.105Z" fill="#FB9E82"/>
</g>
<path d="M151.667 58C151.667 59.4728 150.473 60.6667 149 60.6667C147.527 60.6667 146.333 59.4728 146.333 58C146.333 56.5272 147.527 55.3333 149 55.3333C150.473 55.3333 151.667 56.5272 151.667 58ZM3 98.7755L3.5 98.7755L3 98.7755ZM3 112L0.113246 107L5.88674 107L3 112ZM149 58.5C132.565 58.5 21.8042 58.5 14.466 58.5L14.466 57.5C21.8042 57.5 132.565 57.5 149 57.5L149 58.5ZM14.466 58.5C10.1228 58.5 7.40398 60.9561 5.74226 64.35C4.06915 67.7671 3.5 72.0898 3.5 75.6326L2.5 75.6326C2.5 72.0122 3.07745 67.5185 4.84413 63.9102C6.62222 60.2786 9.63643 57.5 14.466 57.5L14.466 58.5ZM3.5 75.6326C3.5 82.7959 3.5 85.551 3.5 98.7755L2.5 98.7755C2.5 85.551 2.5 82.7959 2.5 75.6326L3.5 75.6326ZM3.5 98.7755C3.5 100.069 3.5 102.713 3.5 107.5L2.5 107.5C2.5 102.713 2.5 100.069 2.5 98.7755L3.5 98.7755Z" fill="black"/>
<path d="M277.333 58C277.333 59.4728 278.527 60.6667 280 60.6667C281.473 60.6667 282.667 59.4728 282.667 58C282.667 56.5272 281.473 55.3333 280 55.3333C278.527 55.3333 277.333 56.5272 277.333 58ZM426 98.7755L425.5 98.7755L426 98.7755ZM426 112L428.887 107L423.113 107L426 112ZM280 58.5C296.435 58.5 407.196 58.5 414.534 58.5L414.534 57.5C407.196 57.5 296.435 57.5 280 57.5L280 58.5ZM414.534 58.5C418.877 58.5 421.596 60.9561 423.258 64.35C424.931 67.7671 425.5 72.0898 425.5 75.6326L426.5 75.6326C426.5 72.0122 425.923 67.5185 424.156 63.9102C422.378 60.2786 419.364 57.5 414.534 57.5L414.534 58.5ZM425.5 75.6326C425.5 82.7959 425.5 85.551 425.5 98.7755L426.5 98.7755C426.5 85.551 426.5 82.7959 426.5 75.6326L425.5 75.6326ZM425.5 98.7755C425.5 100.069 425.5 102.713 425.5 107.5L426.5 107.5C426.5 102.713 426.5 100.069 426.5 98.7755L425.5 98.7755Z" fill="black"/>
<defs>
<clipPath id="clip0_607_4535">
<rect x="135" width="176" height="176" rx="88" fill="white"/>
</clipPath>
</defs>
</svg>
